<?xml version="1.0" encoding="utf-8"?>
<!-- Generator: Adobe Illustrator 16.0.0, SVG Export Plug-In . SVG Version: 6.00 Build 0)  -->
<!DOCTYPE svg PUBLIC "-//W3C//DTD SVG 1.1//EN" "http://www.w3.org/Graphics/SVG/1.1/DTD/svg11.dtd">
<svg version="1.1" id="Layer_1" xmlns="http://www.w3.org/2000/svg" xmlns:xlink="http://www.w3.org/1999/xlink" x="0px" y="0px"
	 width="40px" height="40px" viewBox="0 0 40 40" enable-background="new 0 0 40 40" xml:space="preserve">
<g>
	<g transform="matrix( 1, 0, 0, 1, 0,0) ">
		<g>
			<g id="Layer0_34_FILL">
				<path fill="#138F34" d="M20,0C14.5,0,9.783,1.95,5.851,5.851C1.95,9.75,0,14.467,0,20s1.95,10.233,5.851,14.101
					C9.783,38.033,14.5,40,20,40c5.533,0,10.25-1.967,14.15-5.899C38.051,30.233,40,25.533,40,20S38.051,9.75,34.15,5.851
					C30.25,1.95,25.533,0,20,0z"/>
			</g>
		</g>
	</g>
	<g transform="matrix( 1, 0, 0, 1, 0,0) ">
		<g>
			<g id="Layer0_34_MEMBER_0_FILL">
				<path fill="#FFFFFF" d="M13.601,30.3c-0.134,0.2-0.15,0.434-0.051,0.7c5.733-2.066,8.45-5.416,8.15-10.05
					c-0.066-0.4-0.25-0.65-0.55-0.75c-1.9,0.134-3.25,0.934-4.05,2.4c-0.7,1.333-1.067,2.783-1.101,4.35c-0.833-3,0.333-5.4,3.5-7.2
					c0.134-0.133,0.15-0.2,0.05-0.2c-0.6-0.267-1.449-0.183-2.55,0.25c-3.1,2.034-4.1,5.051-3,9.051
					C14.134,29.384,14,29.867,13.601,30.3 M11.101,9.9c-0.634,0-1.117-0.233-1.45-0.7C9.483,9.033,9.267,8.967,9,9
					c0.667,5.7,3.4,9,8.2,9.9c0.434,0.1,0.75,0.017,0.95-0.25c0.333-1.767-0.167-3.184-1.5-4.25c-1.167-0.967-2.55-1.667-4.15-2.101
					c3.333,0,5.517,1.667,6.55,5c0.033,0.167,0.117,0.2,0.25,0.101c0.334-0.467,0.434-1.267,0.301-2.4
					C18.3,11.667,15.467,9.967,11.101,9.9 M31,10.25c-0.3-0.033-0.516,0.033-0.649,0.2c-0.366,0.5-0.851,0.75-1.45,0.75
					c-4.367,0.033-7.2,1.733-8.5,5.1c-0.134,1.134-0.017,1.917,0.35,2.351c0.066,0.133,0.134,0.1,0.2-0.101
					c1.067-3.3,3.233-4.966,6.5-5c-1.566,0.467-2.933,1.167-4.1,2.101c-1.333,1.133-1.833,2.583-1.5,4.35
					c0.233,0.233,0.55,0.3,0.95,0.2C27.601,19.3,30.334,15.983,31,10.25z"/>
			</g>
		</g>
	</g>
</g>
</svg>
